<?xml version="1.0" encoding="UTF-8" standalone="no"?>
<!DOCTYPE svg PUBLIC "-//W3C//DTD SVG 1.1//EN" "http://www.w3.org/Graphics/SVG/1.1/DTD/svg11.dtd">
<svg width="100%" height="100%" viewBox="0 0 170 170" version="1.1" xmlns="http://www.w3.org/2000/svg" xmlns:xlink="http://www.w3.org/1999/xlink" xml:space="preserve" xmlns:serif="http://www.serif.com/" style="fill-rule:evenodd;clip-rule:evenodd;stroke-linejoin:round;stroke-miterlimit:2;">
    <g transform="matrix(1,0,0,1,-621.806,-467.411)">
        <g id="Artboard1" transform="matrix(1,0,0,1,360.806,427.411)">
            <rect x="-360.806" y="-427.411" width="1413.61" height="1104.82" style="fill:none;"/>
            <g transform="matrix(0.96356,0,0,0.96356,-238.133,78.3798)">
                <g>
                    <g transform="matrix(1,0,0,1,523.235,71.7023)">
                        <path d="M0,-7.529L1.338,-7.529L2.698,-1.77L2.72,-1.77L4.238,-7.529L5.587,-7.529L7.065,-1.77L7.085,-1.77L8.488,-7.529L9.829,-7.529L7.75,0L6.411,0L4.901,-5.757L4.883,-5.757L3.341,0L1.98,0L0,-7.529Z" style="fill:rgb(212,32,39);fill-rule:nonzero;"/>
                    </g>
                    <g transform="matrix(1,0,0,1,-25.2,-509.125)">
                        <rect x="559.129" y="573.298" width="1.319" height="7.529" style="fill:rgb(212,32,39);"/>
                    </g>
                    <g transform="matrix(1,0,0,1,536.808,71.7023)">
                        <path d="M0,-7.529L1.393,-7.529L4.832,-1.981L4.853,-1.981L4.853,-7.529L6.107,-7.529L6.107,0L4.716,0L1.287,-5.535L1.256,-5.535L1.256,0L0,0L0,-7.529Z" style="fill:rgb(212,32,39);fill-rule:nonzero;"/>
                    </g>
                    <g transform="matrix(1,0,0,1,545.795,65.2494)">
                        <path d="M0,5.379L1.297,5.379C3.364,5.379 3.807,4.198 3.807,2.689C3.807,1.182 3.364,0 1.297,0L0,0L0,5.379ZM-1.319,-1.076L1.804,-1.076C4.123,-1.076 5.124,0.612 5.124,2.689C5.124,4.766 4.123,6.455 1.804,6.455L-1.319,6.455L-1.319,-1.076Z" style="fill:rgb(212,32,39);fill-rule:nonzero;"/>
                    </g>
                    <g transform="matrix(1,0,0,1,553.007,67.9395)">
                        <path d="M0,-0.001C0,1.445 0.676,2.868 2.289,2.868C3.902,2.868 4.579,1.445 4.579,-0.001C4.579,-1.445 3.902,-2.87 2.289,-2.87C0.676,-2.87 0,-1.445 0,-0.001M5.896,-0.001C5.896,2.151 4.547,3.944 2.289,3.944C0.033,3.944 -1.317,2.151 -1.317,-0.001C-1.317,-2.152 0.033,-3.945 2.289,-3.945C4.547,-3.945 5.896,-2.152 5.896,-0.001" style="fill:rgb(212,32,39);fill-rule:nonzero;"/>
                    </g>
                    <g transform="matrix(1,0,0,1,559.366,71.7023)">
                        <path d="M0,-7.529L1.342,-7.529L2.703,-1.77L2.723,-1.77L4.241,-7.529L5.593,-7.529L7.067,-1.77L7.089,-1.77L8.492,-7.529L9.832,-7.529L7.754,0L6.415,0L4.906,-5.757L4.886,-5.757L3.347,0L1.986,0L0,-7.529Z" style="fill:rgb(212,32,39);fill-rule:nonzero;"/>
                    </g>
                    <g transform="matrix(1,0,0,1,570.927,66.6828)">
                        <path d="M0,2.512C0,3.67 0.854,4.124 1.908,4.124C3.068,4.124 3.5,3.555 3.5,2.985C3.5,2.405 3.184,2.175 2.881,2.057C2.354,1.857 1.665,1.72 0.634,1.435C-0.652,1.087 -1.033,0.306 -1.033,-0.474C-1.033,-1.982 0.359,-2.688 1.719,-2.688C3.29,-2.688 4.61,-1.856 4.61,-0.283L3.29,-0.283C3.229,-1.254 2.573,-1.613 1.665,-1.613C1.055,-1.613 0.285,-1.39 0.285,-0.632C0.285,-0.104 0.644,0.19 1.183,0.338C1.298,0.369 2.964,0.803 3.354,0.919C4.345,1.214 4.82,2.057 4.82,2.839C4.82,4.526 3.322,5.2 1.825,5.2C0.106,5.2 -1.287,4.378 -1.318,2.512L0,2.512Z" style="fill:rgb(212,32,39);fill-rule:nonzero;"/>
                    </g>
                    <g transform="matrix(1,0,0,1,581.412,70.1201)">
                        <path d="M0,-4.396C0,-3.9 0.411,-3.521 0.687,-3.14C1.138,-3.448 1.571,-3.762 1.571,-4.365C1.571,-4.86 1.267,-5.23 0.801,-5.23C0.357,-5.23 0,-4.902 0,-4.396M0.316,-1.896C-0.125,-1.623 -0.845,-1.38 -0.845,-0.484C-0.845,0.329 -0.328,0.781 0.369,0.781C1.244,0.781 1.561,0.245 1.793,-0.063L0.316,-1.896ZM2.437,0.74C1.878,1.426 1.202,1.731 0.325,1.731C-1.055,1.731 -2.046,0.909 -2.046,-0.504C-2.046,-1.57 -1.181,-2.244 -0.319,-2.688C-0.706,-3.183 -1.074,-3.679 -1.074,-4.333C-1.074,-5.419 -0.251,-6.127 0.771,-6.127C1.74,-6.127 2.646,-5.526 2.646,-4.323C2.646,-3.437 2.016,-2.803 1.285,-2.414L2.458,-1.001C2.543,-1.233 2.637,-1.526 2.688,-2.012L3.745,-2.012C3.668,-1.358 3.492,-0.694 3.152,-0.167L4.599,1.583L3.12,1.583L2.437,0.74Z" style="fill:rgb(212,32,39);fill-rule:nonzero;"/>
                    </g>
                    <g transform="matrix(1,0,0,1,590.914,65.2494)">
                        <path d="M0,5.379L1.299,5.379C3.365,5.379 3.807,4.198 3.807,2.689C3.807,1.182 3.365,0 1.299,0L0,0L0,5.379ZM-1.317,-1.076L1.805,-1.076C4.127,-1.076 5.126,0.612 5.126,2.689C5.126,4.766 4.127,6.455 1.805,6.455L-1.317,6.455L-1.317,-1.076Z" style="fill:rgb(212,32,39);fill-rule:nonzero;"/>
                    </g>
                    <g transform="matrix(1,0,0,1,598.129,67.9395)">
                        <path d="M0,-0.001C0,1.445 0.675,2.868 2.288,2.868C3.903,2.868 4.576,1.445 4.576,-0.001C4.576,-1.445 3.903,-2.87 2.288,-2.87C0.675,-2.87 0,-1.445 0,-0.001M5.895,-0.001C5.895,2.151 4.546,3.944 2.288,3.944C0.031,3.944 -1.318,2.151 -1.318,-0.001C-1.318,-2.152 0.031,-3.945 2.288,-3.945C4.546,-3.945 5.895,-2.152 5.895,-0.001" style="fill:rgb(212,32,39);fill-rule:nonzero;"/>
                    </g>
                    <g transform="matrix(1,0,0,1,606.142,67.9395)">
                        <path d="M0,-0.001C0,1.445 0.675,2.868 2.29,2.868C3.904,2.868 4.578,1.445 4.578,-0.001C4.578,-1.445 3.904,-2.87 2.29,-2.87C0.675,-2.87 0,-1.445 0,-0.001M5.897,-0.001C5.897,2.151 4.548,3.944 2.29,3.944C0.032,3.944 -1.318,2.151 -1.318,-0.001C-1.318,-2.152 0.032,-3.945 2.29,-3.945C4.548,-3.945 5.897,-2.152 5.897,-0.001" style="fill:rgb(212,32,39);fill-rule:nonzero;"/>
                    </g>
                    <g transform="matrix(1,0,0,1,614.56,68.2776)">
                        <path d="M0,-0.677L2.161,-0.677C2.996,-0.677 3.449,-1.087 3.449,-1.878C3.449,-2.84 2.826,-3.028 2.142,-3.028L0,-3.028L0,-0.677ZM-1.317,-4.104L2.276,-4.104C3.924,-4.104 4.767,-3.344 4.767,-2.068C4.767,-0.624 3.766,-0.255 3.523,-0.17L3.523,-0.148C3.977,-0.086 4.641,0.251 4.641,1.444C4.641,2.319 4.767,3.121 5.05,3.427L3.641,3.427C3.439,3.1 3.439,2.689 3.439,2.319C3.439,0.938 3.154,0.326 1.94,0.326L0,0.326L0,3.427L-1.317,3.427L-1.317,-4.104Z" style="fill:rgb(212,32,39);fill-rule:nonzero;"/>
                    </g>
                    <g transform="matrix(1,0,0,1,621.531,66.6828)">
                        <path d="M0,2.512C0,3.67 0.855,4.124 1.91,4.124C3.068,4.124 3.504,3.555 3.504,2.985C3.504,2.405 3.187,2.175 2.879,2.057C2.354,1.857 1.668,1.72 0.634,1.435C-0.653,1.087 -1.033,0.306 -1.033,-0.474C-1.033,-1.982 0.361,-2.688 1.721,-2.688C3.292,-2.688 4.608,-1.856 4.608,-0.283L3.292,-0.283C3.229,-1.254 2.575,-1.613 1.668,-1.613C1.057,-1.613 0.287,-1.39 0.287,-0.632C0.287,-0.104 0.645,0.19 1.182,0.338C1.298,0.369 2.967,0.803 3.355,0.919C4.347,1.214 4.821,2.057 4.821,2.839C4.821,4.526 3.323,5.2 1.826,5.2C0.106,5.2 -1.286,4.378 -1.318,2.512L0,2.512Z" style="fill:rgb(212,32,39);fill-rule:nonzero;"/>
                    </g>
                    <g transform="matrix(1,0,0,1,527.955,59.5995)">
                        <path d="M0,-19.164L11.085,-19.164L10.306,-15.516L3.729,-15.516L2.897,-11.676L9.072,-11.676L8.32,-8.025L2.147,-8.025L1.208,-3.65L8.077,-3.65L7.301,0L-4.08,0L0,-19.164Z" style="fill:rgb(35,31,32);fill-rule:nonzero;"/>
                    </g>
                    <g transform="matrix(1,0,0,1,551.009,47.1452)">
                        <path d="M0,6.119C-0.804,9.877 -2.495,12.829 -7.729,12.829C-12.964,12.829 -13.419,9.877 -12.613,6.119L-9.878,-6.71L-5.368,-6.71L-8.373,7.434C-8.696,8.938 -8.293,9.824 -7.087,9.824C-5.878,9.824 -5.099,8.938 -4.778,7.434L-1.771,-6.71L2.737,-6.71L0,6.119Z" style="fill:rgb(35,31,32);fill-rule:nonzero;"/>
                    </g>
                    <g transform="matrix(1,0,0,1,559.088,51.5207)">
                        <path d="M0,-3.007L1.395,-3.007C3.219,-3.007 3.998,-4.375 4.239,-5.503C4.535,-6.952 4.213,-7.919 2.414,-7.919L1.046,-7.919L0,-3.007ZM-2.791,-11.085L4.776,-11.085C8.613,-11.085 9.419,-8.723 8.855,-6.094C8.267,-3.302 6.842,-1.933 4.642,-1.423L4.642,-1.37C7.432,-0.967 7.192,0.831 6.709,3.407C5.984,7.192 6.039,7.568 6.629,7.836L6.574,8.078L1.718,8.078C1.5,7.434 1.609,6.361 2.065,4.187C2.765,0.858 2.467,0.159 1.046,0.159L-0.674,0.159L-2.363,8.078L-6.873,8.078L-2.791,-11.085Z" style="fill:rgb(35,31,32);fill-rule:nonzero;"/>
                    </g>
                    <g transform="matrix(1,0,0,1,574.465,43.0637)">
                        <path d="M0,13.905C1.824,13.905 2.442,12.214 3.568,6.953C4.697,1.693 4.778,0.001 2.952,0.001C1.179,0.001 0.563,1.693 -0.565,6.953C-1.691,12.214 -1.772,13.905 0,13.905M-0.618,16.91C-6.551,16.91 -6.522,13.046 -5.234,6.953C-3.945,0.861 -2.311,-3.005 3.623,-3.005C10.011,-3.005 9.367,1.638 8.24,6.953C7.111,12.267 5.769,16.91 -0.618,16.91" style="fill:rgb(35,31,32);fill-rule:nonzero;"/>
                    </g>
                    <g transform="matrix(1,0,0,1,594.967,46.2866)">
                        <path d="M0,7.461L-0.135,8.132C-0.43,9.581 -0.269,10.682 1.287,10.682C2.872,10.682 3.567,9.501 3.811,8.4C4.697,4.267 -4.054,6.575 -2.524,-0.591C-1.881,-3.65 0.32,-6.227 4.964,-6.227C9.474,-6.227 10.602,-3.947 9.955,-0.995L9.877,-0.537L5.529,-0.537C5.716,-1.449 5.742,-2.121 5.581,-2.55C5.394,-3.007 5.02,-3.221 4.349,-3.221C3.219,-3.221 2.415,-2.55 2.12,-1.154C1.261,2.845 9.93,0.832 8.48,7.596C7.567,11.944 4.776,13.688 0.644,13.688C-2.63,13.688 -5.448,12.695 -4.589,8.695L-4.348,7.461L0,7.461Z" style="fill:rgb(35,31,32);fill-rule:nonzero;"/>
                    </g>
                    <g transform="matrix(1,0,0,1,610.505,55.9484)">
                        <path d="M0,-11.862L-4.023,-11.862L-3.246,-15.513L9.313,-15.513L8.536,-11.862L4.51,-11.862L1.208,3.651L-3.301,3.651L0,-11.862Z" style="fill:rgb(35,31,32);fill-rule:nonzero;"/>
                    </g>
                    <g transform="matrix(1,0,0,1,625.427,56.1088)">
                        <path d="M0,-12.184L-0.054,-12.184L-3.437,-3.649L-0.161,-3.649L0,-12.184ZM-1.986,-15.674L3.65,-15.674L4.348,3.49L-0.323,3.49L-0.242,-0.161L-4.832,-0.161L-6.28,3.49L-10.95,3.49L-1.986,-15.674Z" style="fill:rgb(35,31,32);fill-rule:nonzero;"/>
                    </g>
                    <g transform="matrix(1,0,0,1,638.094,51.5207)">
                        <path d="M0,-3.007L1.396,-3.007C3.223,-3.007 4.001,-4.375 4.24,-5.503C4.536,-6.952 4.214,-7.919 2.416,-7.919L1.046,-7.919L0,-3.007ZM-2.79,-11.085L4.777,-11.085C8.614,-11.085 9.421,-8.723 8.857,-6.094C8.268,-3.302 6.845,-1.933 4.643,-1.423L4.643,-1.37C7.433,-0.967 7.194,0.831 6.71,3.407C5.985,7.192 6.04,7.568 6.629,7.836L6.575,8.078L1.719,8.078C1.503,7.434 1.611,6.361 2.065,4.187C2.765,0.858 2.47,0.159 1.046,0.159L-0.67,0.159L-2.36,8.078L-6.872,8.078L-2.79,-11.085Z" style="fill:rgb(35,31,32);fill-rule:nonzero;"/>
                    </g>
                    <g transform="matrix(1,0,0,1,620.865,18.4238)">
                        <path d="M0,59.919L61.266,59.919C66.302,59.919 70.175,55.749 67.445,48.488L51.99,6.907C50.157,2.308 47.248,0 41.998,0L21.455,0L29.756,21.978L53.261,21.763L34.501,35.348L43.557,59.067L21.562,44.404L0,59.919Z" style="fill:rgb(212,32,39);fill-rule:nonzero;"/>
                    </g>
                </g>
            </g>
        </g>
    </g>
</svg>
